<mxfile host="app.diagrams.net" modified="2024-06-16T15:18:24.531Z" agent="Mozilla/5.0 (Windows NT 10.0; Win64; x64) AppleWebKit/537.36 (KHTML, like Gecko) Chrome/125.0.0.0 Safari/537.36" etag="LAZ2S1zuBnr3vgcuq4h4" version="24.5.4" type="github">
  <diagram name="Page-1" id="kSgcQvUkj_WSBug4gKsT">
    <mxGraphModel dx="1843" dy="867" grid="1" gridSize="10" guides="1" tooltips="1" connect="1" arrows="1" fold="1" page="1" pageScale="1" pageWidth="850" pageHeight="1100" math="0" shadow="0">
      <root>
        <mxCell id="0" />
        <mxCell id="1" parent="0" />
        <mxCell id="lzAnouYIb8f7EVIocrHt-52" value="" style="fontStyle=0;dashed=1;html=1;whiteSpace=wrap;" parent="1" vertex="1">
          <mxGeometry x="200" y="250" width="280" height="360" as="geometry" />
        </mxCell>
        <mxCell id="lzAnouYIb8f7EVIocrHt-19" value="1. AREA CALCULATION" style="html=1;whiteSpace=wrap;" parent="1" vertex="1">
          <mxGeometry x="240" y="290" width="200" height="40" as="geometry" />
        </mxCell>
        <mxCell id="lzAnouYIb8f7EVIocrHt-20" value="2. PERIMETER CALCULATION" style="html=1;whiteSpace=wrap;" parent="1" vertex="1">
          <mxGeometry x="240" y="370" width="200" height="40" as="geometry" />
        </mxCell>
        <mxCell id="lzAnouYIb8f7EVIocrHt-21" value="3. EXIT" style="html=1;whiteSpace=wrap;" parent="1" vertex="1">
          <mxGeometry x="240" y="450" width="200" height="40" as="geometry" />
        </mxCell>
        <mxCell id="lzAnouYIb8f7EVIocrHt-29" value="" style="group" parent="1" vertex="1" connectable="0">
          <mxGeometry x="200" y="582.22" width="40" height="27.77777777777777" as="geometry" />
        </mxCell>
        <mxCell id="lzAnouYIb8f7EVIocrHt-27" value="" style="ellipse;whiteSpace=wrap;html=1;aspect=fixed;container=0;" parent="lzAnouYIb8f7EVIocrHt-29" vertex="1">
          <mxGeometry x="6.113333333333344" width="27.77777777777777" height="27.77777777777777" as="geometry" />
        </mxCell>
        <mxCell id="lzAnouYIb8f7EVIocrHt-26" value="&lt;font style=&quot;font-size: 10px;&quot;&gt;start&lt;/font&gt;" style="text;html=1;align=center;verticalAlign=middle;whiteSpace=wrap;rounded=0;container=0;" parent="lzAnouYIb8f7EVIocrHt-29" vertex="1">
          <mxGeometry y="1.8840000000000146" width="40" height="24" as="geometry" />
        </mxCell>
        <mxCell id="lzAnouYIb8f7EVIocrHt-38" value="other input" style="rounded=1;whiteSpace=wrap;html=1;arcSize=40;fontColor=#000000;fillColor=#ffffc0;strokeColor=#ff0000;" parent="1" vertex="1">
          <mxGeometry x="75" y="630" width="120" height="40" as="geometry" />
        </mxCell>
        <mxCell id="lzAnouYIb8f7EVIocrHt-39" value="" style="edgeStyle=orthogonalEdgeStyle;html=1;verticalAlign=bottom;endArrow=open;endSize=8;strokeColor=#ff0000;rounded=0;entryX=0.5;entryY=1;entryDx=0;entryDy=0;" parent="1" source="lzAnouYIb8f7EVIocrHt-38" target="lzAnouYIb8f7EVIocrHt-53" edge="1">
          <mxGeometry relative="1" as="geometry">
            <mxPoint x="150" y="340" as="targetPoint" />
            <Array as="points" />
          </mxGeometry>
        </mxCell>
        <mxCell id="lzAnouYIb8f7EVIocrHt-41" value="" style="edgeStyle=orthogonalEdgeStyle;html=1;verticalAlign=bottom;endArrow=open;endSize=8;strokeColor=#ff0000;rounded=0;entryX=1;entryY=0.5;entryDx=0;entryDy=0;exitX=0.5;exitY=1;exitDx=0;exitDy=0;" parent="1" source="lzAnouYIb8f7EVIocrHt-42" target="lzAnouYIb8f7EVIocrHt-38" edge="1">
          <mxGeometry relative="1" as="geometry">
            <mxPoint x="310" y="610" as="targetPoint" />
            <mxPoint x="400" y="660" as="sourcePoint" />
            <Array as="points">
              <mxPoint x="340" y="650" />
            </Array>
          </mxGeometry>
        </mxCell>
        <mxCell id="lzAnouYIb8f7EVIocrHt-42" value="OTHER INPUT" style="html=1;whiteSpace=wrap;" parent="1" vertex="1">
          <mxGeometry x="240" y="532" width="200" height="40" as="geometry" />
        </mxCell>
        <mxCell id="lzAnouYIb8f7EVIocrHt-45" value="&lt;font style=&quot;font-size: 10px;&quot;&gt;ARE YOU SURE TO EXIT?&lt;/font&gt;" style="rhombus;whiteSpace=wrap;html=1;fontColor=#000000;fillColor=#ffffc0;strokeColor=#ff0000;" parent="1" vertex="1">
          <mxGeometry x="210" y="690" width="190" height="40" as="geometry" />
        </mxCell>
        <mxCell id="lzAnouYIb8f7EVIocrHt-46" value="&lt;font style=&quot;font-size: 18px;&quot;&gt;no&lt;/font&gt;" style="edgeStyle=orthogonalEdgeStyle;html=1;align=left;verticalAlign=bottom;endArrow=open;endSize=8;strokeColor=#ff0000;rounded=0;exitX=0;exitY=0.5;exitDx=0;exitDy=0;entryX=0;entryY=0.5;entryDx=0;entryDy=0;" parent="1" source="lzAnouYIb8f7EVIocrHt-45" target="lzAnouYIb8f7EVIocrHt-53" edge="1">
          <mxGeometry x="-0.8" relative="1" as="geometry">
            <mxPoint x="90" y="230" as="targetPoint" />
            <mxPoint x="20" y="715.87" as="sourcePoint" />
            <Array as="points">
              <mxPoint x="70" y="710" />
              <mxPoint x="70" y="230" />
            </Array>
            <mxPoint as="offset" />
          </mxGeometry>
        </mxCell>
        <mxCell id="lzAnouYIb8f7EVIocrHt-47" value="" style="edgeStyle=orthogonalEdgeStyle;html=1;align=left;verticalAlign=top;endArrow=open;endSize=8;strokeColor=#ff0000;rounded=0;entryX=1;entryY=0.5;entryDx=0;entryDy=0;exitX=1;exitY=0.5;exitDx=0;exitDy=0;" parent="1" source="lzAnouYIb8f7EVIocrHt-21" target="lzAnouYIb8f7EVIocrHt-45" edge="1">
          <mxGeometry x="-0.087" y="40" relative="1" as="geometry">
            <mxPoint x="530" y="650.25" as="targetPoint" />
            <mxPoint x="530" y="582.22" as="sourcePoint" />
            <Array as="points">
              <mxPoint x="530" y="470" />
              <mxPoint x="530" y="710" />
            </Array>
            <mxPoint as="offset" />
          </mxGeometry>
        </mxCell>
        <mxCell id="lzAnouYIb8f7EVIocrHt-51" value="MAIN MENU" style="fontStyle=0;dashed=1;html=1;whiteSpace=wrap;" parent="1" vertex="1">
          <mxGeometry x="200" y="210" width="280" height="40" as="geometry" />
        </mxCell>
        <mxCell id="lzAnouYIb8f7EVIocrHt-53" value="" style="ellipse;" parent="1" vertex="1">
          <mxGeometry x="120" y="215" width="30" height="30" as="geometry" />
        </mxCell>
        <mxCell id="lzAnouYIb8f7EVIocrHt-56" value="" style="edgeStyle=orthogonalEdgeStyle;html=1;verticalAlign=bottom;endArrow=open;endSize=8;strokeColor=#ff0000;rounded=0;exitX=1;exitY=0.5;exitDx=0;exitDy=0;entryX=0;entryY=0.5;entryDx=0;entryDy=0;" parent="1" source="lzAnouYIb8f7EVIocrHt-53" target="lzAnouYIb8f7EVIocrHt-51" edge="1">
          <mxGeometry relative="1" as="geometry">
            <mxPoint x="170" y="245" as="targetPoint" />
            <mxPoint x="170" y="185" as="sourcePoint" />
          </mxGeometry>
        </mxCell>
        <mxCell id="lzAnouYIb8f7EVIocrHt-66" value="" style="group" parent="1" vertex="1" connectable="0">
          <mxGeometry x="290" y="730" width="30" height="180" as="geometry" />
        </mxCell>
        <mxCell id="lzAnouYIb8f7EVIocrHt-57" value="&lt;font style=&quot;font-size: 18px;&quot;&gt;yes&lt;/font&gt;" style="edgeStyle=orthogonalEdgeStyle;html=1;align=left;verticalAlign=top;endArrow=open;endSize=8;strokeColor=#ff0000;rounded=0;entryX=0.483;entryY=0.136;entryDx=0;entryDy=0;entryPerimeter=0;" parent="lzAnouYIb8f7EVIocrHt-66" target="lzAnouYIb8f7EVIocrHt-60" edge="1">
          <mxGeometry x="-1" relative="1" as="geometry">
            <mxPoint x="15" y="150" as="targetPoint" />
            <mxPoint x="14" as="sourcePoint" />
            <Array as="points">
              <mxPoint x="14" y="27" />
              <mxPoint x="15" y="27" />
            </Array>
            <mxPoint as="offset" />
          </mxGeometry>
        </mxCell>
        <mxCell id="lzAnouYIb8f7EVIocrHt-60" value="" style="ellipse;html=1;shape=startState;fillColor=#000000;strokeColor=#ff0000;" parent="lzAnouYIb8f7EVIocrHt-66" vertex="1">
          <mxGeometry y="50" width="30" height="30" as="geometry" />
        </mxCell>
        <mxCell id="lzAnouYIb8f7EVIocrHt-75" value="" style="fontStyle=0;dashed=1;html=1;whiteSpace=wrap;" parent="1" vertex="1">
          <mxGeometry x="780" y="200" width="280" height="520" as="geometry" />
        </mxCell>
        <mxCell id="lzAnouYIb8f7EVIocrHt-76" value="1. SQUARE" style="html=1;whiteSpace=wrap;" parent="1" vertex="1">
          <mxGeometry x="820" y="240" width="200" height="40" as="geometry" />
        </mxCell>
        <mxCell id="lzAnouYIb8f7EVIocrHt-77" value="2. RECTANGLE" style="html=1;whiteSpace=wrap;" parent="1" vertex="1">
          <mxGeometry x="820" y="320" width="200" height="40" as="geometry" />
        </mxCell>
        <mxCell id="lzAnouYIb8f7EVIocrHt-78" value="3. TRIANGLE" style="html=1;whiteSpace=wrap;" parent="1" vertex="1">
          <mxGeometry x="820" y="400" width="200" height="40" as="geometry" />
        </mxCell>
        <mxCell id="lzAnouYIb8f7EVIocrHt-82" value="4. CIRCLE" style="html=1;whiteSpace=wrap;" parent="1" vertex="1">
          <mxGeometry x="820" y="482" width="200" height="40" as="geometry" />
        </mxCell>
        <mxCell id="lzAnouYIb8f7EVIocrHt-83" value="SHAPE SELECTÄ°ON SUB MENU" style="fontStyle=0;dashed=1;html=1;whiteSpace=wrap;" parent="1" vertex="1">
          <mxGeometry x="780" y="160" width="280" height="40" as="geometry" />
        </mxCell>
        <mxCell id="lzAnouYIb8f7EVIocrHt-84" value="OTHER INPUT" style="html=1;whiteSpace=wrap;" parent="1" vertex="1">
          <mxGeometry x="820" y="640" width="200" height="40" as="geometry" />
        </mxCell>
        <mxCell id="lzAnouYIb8f7EVIocrHt-88" value="other input" style="rounded=1;whiteSpace=wrap;html=1;arcSize=40;fontColor=#000000;fillColor=#ffffc0;strokeColor=#ff0000;" parent="1" vertex="1">
          <mxGeometry x="530" y="740" width="120" height="40" as="geometry" />
        </mxCell>
        <mxCell id="lzAnouYIb8f7EVIocrHt-89" value="" style="edgeStyle=orthogonalEdgeStyle;html=1;verticalAlign=bottom;endArrow=open;endSize=8;strokeColor=#ff0000;rounded=0;" parent="1" source="lzAnouYIb8f7EVIocrHt-88" edge="1">
          <mxGeometry relative="1" as="geometry">
            <mxPoint x="700" y="177" as="targetPoint" />
            <Array as="points">
              <mxPoint x="590" y="685" />
              <mxPoint x="590" y="177" />
            </Array>
          </mxGeometry>
        </mxCell>
        <mxCell id="lzAnouYIb8f7EVIocrHt-90" value="" style="edgeStyle=orthogonalEdgeStyle;html=1;verticalAlign=bottom;endArrow=open;endSize=8;strokeColor=#ff0000;rounded=0;entryX=1;entryY=0.5;entryDx=0;entryDy=0;exitX=0.549;exitY=1.008;exitDx=0;exitDy=0;exitPerimeter=0;" parent="1" source="lzAnouYIb8f7EVIocrHt-84" target="lzAnouYIb8f7EVIocrHt-88" edge="1">
          <mxGeometry relative="1" as="geometry">
            <mxPoint x="900" y="645" as="targetPoint" />
            <mxPoint x="930" y="607" as="sourcePoint" />
            <Array as="points">
              <mxPoint x="930" y="760" />
              <mxPoint x="650" y="760" />
            </Array>
          </mxGeometry>
        </mxCell>
        <mxCell id="lzAnouYIb8f7EVIocrHt-91" value="" style="edgeStyle=orthogonalEdgeStyle;html=1;align=left;verticalAlign=top;endArrow=open;endSize=8;strokeColor=#ff0000;rounded=0;exitX=1;exitY=0.5;exitDx=0;exitDy=0;entryX=0.5;entryY=0;entryDx=0;entryDy=0;" parent="1" source="lzAnouYIb8f7EVIocrHt-92" target="lzAnouYIb8f7EVIocrHt-53" edge="1">
          <mxGeometry x="-0.087" y="40" relative="1" as="geometry">
            <mxPoint x="110" y="160" as="targetPoint" />
            <mxPoint x="860" y="580" as="sourcePoint" />
            <Array as="points">
              <mxPoint x="1220" y="580" />
              <mxPoint x="1220" y="830" />
              <mxPoint x="40" y="830" />
              <mxPoint x="40" y="140" />
              <mxPoint x="135" y="140" />
            </Array>
            <mxPoint as="offset" />
          </mxGeometry>
        </mxCell>
        <mxCell id="lzAnouYIb8f7EVIocrHt-92" value="5. MAIN MENU" style="html=1;whiteSpace=wrap;" parent="1" vertex="1">
          <mxGeometry x="820" y="560" width="200" height="40" as="geometry" />
        </mxCell>
        <mxCell id="lzAnouYIb8f7EVIocrHt-100" value="" style="edgeStyle=orthogonalEdgeStyle;html=1;verticalAlign=bottom;endArrow=open;endSize=8;strokeColor=#ff0000;rounded=0;exitX=1;exitY=0.5;exitDx=0;exitDy=0;entryX=0.75;entryY=0.5;entryDx=0;entryDy=0;entryPerimeter=0;" parent="1" source="lzAnouYIb8f7EVIocrHt-19" target="lzAnouYIb8f7EVIocrHt-101" edge="1">
          <mxGeometry relative="1" as="geometry">
            <mxPoint x="640" y="310" as="targetPoint" />
            <mxPoint x="510" y="260" as="sourcePoint" />
            <Array as="points">
              <mxPoint x="600" y="310" />
            </Array>
          </mxGeometry>
        </mxCell>
        <mxCell id="lzAnouYIb8f7EVIocrHt-101" value="" style="shape=line;html=1;strokeWidth=6;strokeColor=#ff0000;rotation=-90;" parent="1" vertex="1">
          <mxGeometry x="523.75" y="376.25" width="282.5" height="10" as="geometry" />
        </mxCell>
        <mxCell id="lzAnouYIb8f7EVIocrHt-102" value="" style="edgeStyle=orthogonalEdgeStyle;html=1;verticalAlign=bottom;endArrow=open;endSize=8;strokeColor=#ff0000;rounded=0;exitX=1;exitY=0.5;exitDx=0;exitDy=0;entryX=0.465;entryY=0.6;entryDx=0;entryDy=0;entryPerimeter=0;" parent="1" edge="1" target="lzAnouYIb8f7EVIocrHt-101">
          <mxGeometry relative="1" as="geometry">
            <mxPoint x="650" y="390" as="targetPoint" />
            <mxPoint x="440" y="390.5" as="sourcePoint" />
            <Array as="points">
              <mxPoint x="580" y="390" />
            </Array>
          </mxGeometry>
        </mxCell>
        <mxCell id="lzAnouYIb8f7EVIocrHt-104" value="" style="edgeStyle=orthogonalEdgeStyle;html=1;verticalAlign=bottom;endArrow=open;endSize=8;strokeColor=#ff0000;rounded=0;exitX=0.931;exitY=0.628;exitDx=0;exitDy=0;exitPerimeter=0;entryX=0;entryY=0.5;entryDx=0;entryDy=0;" parent="1" source="lzAnouYIb8f7EVIocrHt-101" target="lzAnouYIb8f7EVIocrHt-76" edge="1">
          <mxGeometry relative="1" as="geometry">
            <mxPoint x="810" y="260" as="targetPoint" />
            <mxPoint x="700" y="245" as="sourcePoint" />
            <Array as="points" />
          </mxGeometry>
        </mxCell>
        <mxCell id="lzAnouYIb8f7EVIocrHt-105" value="" style="edgeStyle=orthogonalEdgeStyle;html=1;verticalAlign=bottom;endArrow=open;endSize=8;strokeColor=#ff0000;rounded=0;exitX=0.931;exitY=0.628;exitDx=0;exitDy=0;exitPerimeter=0;entryX=0;entryY=0.5;entryDx=0;entryDy=0;" parent="1" target="lzAnouYIb8f7EVIocrHt-77" edge="1">
          <mxGeometry relative="1" as="geometry">
            <mxPoint x="810" y="340" as="targetPoint" />
            <mxPoint x="666" y="339.25" as="sourcePoint" />
            <Array as="points">
              <mxPoint x="743" y="339" />
            </Array>
          </mxGeometry>
        </mxCell>
        <mxCell id="lzAnouYIb8f7EVIocrHt-106" value="" style="edgeStyle=orthogonalEdgeStyle;html=1;verticalAlign=bottom;endArrow=open;endSize=8;strokeColor=#ff0000;rounded=0;exitX=0.931;exitY=0.628;exitDx=0;exitDy=0;exitPerimeter=0;" parent="1" edge="1">
          <mxGeometry relative="1" as="geometry">
            <mxPoint x="820" y="419" as="targetPoint" />
            <mxPoint x="666" y="419.25" as="sourcePoint" />
            <Array as="points">
              <mxPoint x="743" y="419" />
            </Array>
          </mxGeometry>
        </mxCell>
        <mxCell id="lzAnouYIb8f7EVIocrHt-107" value="" style="edgeStyle=orthogonalEdgeStyle;html=1;verticalAlign=bottom;endArrow=open;endSize=8;strokeColor=#ff0000;rounded=0;exitX=0.931;exitY=0.628;exitDx=0;exitDy=0;exitPerimeter=0;" parent="1" target="lzAnouYIb8f7EVIocrHt-82" edge="1">
          <mxGeometry relative="1" as="geometry">
            <mxPoint x="750" y="500" as="targetPoint" />
            <mxPoint x="666" y="501.22" as="sourcePoint" />
            <Array as="points" />
          </mxGeometry>
        </mxCell>
        <mxCell id="lzAnouYIb8f7EVIocrHt-110" value="" style="edgeStyle=orthogonalEdgeStyle;html=1;verticalAlign=bottom;endArrow=open;endSize=8;strokeColor=#ff0000;rounded=0;exitX=1;exitY=0.5;exitDx=0;exitDy=0;" parent="1" source="lzAnouYIb8f7EVIocrHt-76" edge="1">
          <mxGeometry relative="1" as="geometry">
            <mxPoint x="1270" y="260" as="targetPoint" />
            <mxPoint x="1230" y="329.9999999999999" as="sourcePoint" />
          </mxGeometry>
        </mxCell>
        <mxCell id="lzAnouYIb8f7EVIocrHt-111" value="" style="edgeStyle=orthogonalEdgeStyle;html=1;verticalAlign=bottom;endArrow=open;endSize=8;strokeColor=#ff0000;rounded=0;exitX=1;exitY=0.5;exitDx=0;exitDy=0;" parent="1" edge="1">
          <mxGeometry relative="1" as="geometry">
            <mxPoint x="1270" y="339.52" as="targetPoint" />
            <mxPoint x="1020" y="339.52" as="sourcePoint" />
          </mxGeometry>
        </mxCell>
        <mxCell id="lzAnouYIb8f7EVIocrHt-112" value="" style="edgeStyle=orthogonalEdgeStyle;html=1;verticalAlign=bottom;endArrow=open;endSize=8;strokeColor=#ff0000;rounded=0;exitX=1;exitY=0.5;exitDx=0;exitDy=0;" parent="1" edge="1">
          <mxGeometry relative="1" as="geometry">
            <mxPoint x="1270" y="419.76" as="targetPoint" />
            <mxPoint x="1020" y="419.76" as="sourcePoint" />
          </mxGeometry>
        </mxCell>
        <mxCell id="lzAnouYIb8f7EVIocrHt-113" value="" style="edgeStyle=orthogonalEdgeStyle;html=1;verticalAlign=bottom;endArrow=open;endSize=8;strokeColor=#ff0000;rounded=0;exitX=1;exitY=0.5;exitDx=0;exitDy=0;" parent="1" edge="1">
          <mxGeometry relative="1" as="geometry">
            <mxPoint x="1270" y="501.76" as="targetPoint" />
            <mxPoint x="1020" y="501.76" as="sourcePoint" />
          </mxGeometry>
        </mxCell>
        <mxCell id="lzAnouYIb8f7EVIocrHt-121" value="&lt;font style=&quot;font-size: 10px;&quot;&gt;DO YOU WANT TO CALCULATE &lt;br&gt;{AREA/PERIMETER} FOR {SAMESHAPE}?&lt;/font&gt;" style="rhombus;whiteSpace=wrap;html=1;fontColor=#000000;fillColor=#ffffc0;strokeColor=#ff0000;" parent="1" vertex="1">
          <mxGeometry x="1650" y="290" width="230" height="170" as="geometry" />
        </mxCell>
        <mxCell id="lzAnouYIb8f7EVIocrHt-122" value="NO" style="edgeStyle=orthogonalEdgeStyle;html=1;align=left;verticalAlign=bottom;endArrow=open;endSize=8;strokeColor=#ff0000;rounded=0;exitX=1;exitY=0.5;exitDx=0;exitDy=0;entryX=0.5;entryY=0;entryDx=0;entryDy=0;" parent="1" source="lzAnouYIb8f7EVIocrHt-121" target="BljJxkDZNTCyLEzIoULD-45" edge="1">
          <mxGeometry x="0.2294" relative="1" as="geometry">
            <mxPoint x="780" y="10" as="targetPoint" />
            <mxPoint x="1920" y="370" as="sourcePoint" />
            <Array as="points">
              <mxPoint x="1880" y="70" />
              <mxPoint x="715" y="70" />
            </Array>
            <mxPoint as="offset" />
          </mxGeometry>
        </mxCell>
        <mxCell id="lzAnouYIb8f7EVIocrHt-123" value="&lt;font style=&quot;font-size: 12px;&quot;&gt;YES&lt;/font&gt;" style="edgeStyle=orthogonalEdgeStyle;html=1;align=left;verticalAlign=top;endArrow=open;endSize=8;strokeColor=#ff0000;rounded=0;" parent="1" source="lzAnouYIb8f7EVIocrHt-121" edge="1">
          <mxGeometry x="-0.6945" relative="1" as="geometry">
            <mxPoint x="1210" y="139.2" as="targetPoint" />
            <Array as="points">
              <mxPoint x="1765" y="100" />
              <mxPoint x="1210" y="100" />
            </Array>
            <mxPoint as="offset" />
          </mxGeometry>
        </mxCell>
        <mxCell id="BljJxkDZNTCyLEzIoULD-1" value="SQUARE" style="swimlane;fontStyle=0;childLayout=stackLayout;horizontal=1;startSize=26;horizontalStack=0;resizeParent=1;resizeParentMax=0;resizeLast=0;collapsible=1;marginBottom=0;align=center;fontSize=14;" parent="1" vertex="1">
          <mxGeometry x="1270" y="234" width="140" height="52" as="geometry" />
        </mxCell>
        <mxCell id="BljJxkDZNTCyLEzIoULD-2" value="lengthOfSide" style="text;strokeColor=none;fillColor=none;spacingLeft=4;spacingRight=4;overflow=hidden;rotatable=0;points=[[0,0.5],[1,0.5]];portConstraint=eastwest;fontSize=12;whiteSpace=wrap;html=1;" parent="BljJxkDZNTCyLEzIoULD-1" vertex="1">
          <mxGeometry y="26" width="140" height="26" as="geometry" />
        </mxCell>
        <mxCell id="BljJxkDZNTCyLEzIoULD-8" value="RECTANGLE" style="swimlane;fontStyle=0;childLayout=stackLayout;horizontal=1;startSize=26;horizontalStack=0;resizeParent=1;resizeParentMax=0;resizeLast=0;collapsible=1;marginBottom=0;align=center;fontSize=14;" parent="1" vertex="1">
          <mxGeometry x="1270" y="305" width="140" height="70" as="geometry" />
        </mxCell>
        <mxCell id="BljJxkDZNTCyLEzIoULD-9" value="length" style="text;strokeColor=none;fillColor=none;spacingLeft=4;spacingRight=4;overflow=hidden;rotatable=0;points=[[0,0.5],[1,0.5]];portConstraint=eastwest;fontSize=12;whiteSpace=wrap;html=1;" parent="BljJxkDZNTCyLEzIoULD-8" vertex="1">
          <mxGeometry y="26" width="140" height="24" as="geometry" />
        </mxCell>
        <mxCell id="BljJxkDZNTCyLEzIoULD-10" value="width" style="text;strokeColor=none;fillColor=none;spacingLeft=4;spacingRight=4;overflow=hidden;rotatable=0;points=[[0,0.5],[1,0.5]];portConstraint=eastwest;fontSize=12;whiteSpace=wrap;html=1;" parent="BljJxkDZNTCyLEzIoULD-8" vertex="1">
          <mxGeometry y="50" width="140" height="20" as="geometry" />
        </mxCell>
        <mxCell id="BljJxkDZNTCyLEzIoULD-15" value="TRIANGLE" style="swimlane;fontStyle=0;childLayout=stackLayout;horizontal=1;startSize=26;horizontalStack=0;resizeParent=1;resizeParentMax=0;resizeLast=0;collapsible=1;marginBottom=0;align=center;fontSize=14;" parent="1" vertex="1">
          <mxGeometry x="1270" y="386.25" width="140" height="70" as="geometry" />
        </mxCell>
        <mxCell id="BljJxkDZNTCyLEzIoULD-16" value="lengthOfHypotenuse" style="text;strokeColor=none;fillColor=none;spacingLeft=4;spacingRight=4;overflow=hidden;rotatable=0;points=[[0,0.5],[1,0.5]];portConstraint=eastwest;fontSize=12;whiteSpace=wrap;html=1;" parent="BljJxkDZNTCyLEzIoULD-15" vertex="1">
          <mxGeometry y="26" width="140" height="24" as="geometry" />
        </mxCell>
        <mxCell id="BljJxkDZNTCyLEzIoULD-17" value="height" style="text;strokeColor=none;fillColor=none;spacingLeft=4;spacingRight=4;overflow=hidden;rotatable=0;points=[[0,0.5],[1,0.5]];portConstraint=eastwest;fontSize=12;whiteSpace=wrap;html=1;" parent="BljJxkDZNTCyLEzIoULD-15" vertex="1">
          <mxGeometry y="50" width="140" height="20" as="geometry" />
        </mxCell>
        <mxCell id="BljJxkDZNTCyLEzIoULD-18" value="CIRCLE" style="swimlane;fontStyle=0;childLayout=stackLayout;horizontal=1;startSize=26;horizontalStack=0;resizeParent=1;resizeParentMax=0;resizeLast=0;collapsible=1;marginBottom=0;align=center;fontSize=14;" parent="1" vertex="1">
          <mxGeometry x="1270" y="470" width="140" height="50" as="geometry" />
        </mxCell>
        <mxCell id="BljJxkDZNTCyLEzIoULD-19" value="lengthOfRadius" style="text;strokeColor=none;fillColor=none;spacingLeft=4;spacingRight=4;overflow=hidden;rotatable=0;points=[[0,0.5],[1,0.5]];portConstraint=eastwest;fontSize=12;whiteSpace=wrap;html=1;" parent="BljJxkDZNTCyLEzIoULD-18" vertex="1">
          <mxGeometry y="26" width="140" height="24" as="geometry" />
        </mxCell>
        <mxCell id="BljJxkDZNTCyLEzIoULD-28" value="" style="edgeStyle=orthogonalEdgeStyle;html=1;verticalAlign=bottom;endArrow=open;endSize=8;strokeColor=#ff0000;rounded=0;exitX=0.987;exitY=0.488;exitDx=0;exitDy=0;exitPerimeter=0;" parent="1" edge="1">
          <mxGeometry relative="1" as="geometry">
            <mxPoint x="1512" y="260.91999999999996" as="targetPoint" />
            <mxPoint x="1410.1799999999998" y="260.376" as="sourcePoint" />
          </mxGeometry>
        </mxCell>
        <mxCell id="BljJxkDZNTCyLEzIoULD-29" value="" style="edgeStyle=orthogonalEdgeStyle;html=1;verticalAlign=bottom;endArrow=open;endSize=8;strokeColor=#ff0000;rounded=0;exitX=0.987;exitY=0.488;exitDx=0;exitDy=0;exitPerimeter=0;" parent="1" edge="1">
          <mxGeometry relative="1" as="geometry">
            <mxPoint x="1511.82" y="335.03999999999996" as="targetPoint" />
            <mxPoint x="1409.9999999999998" y="334.496" as="sourcePoint" />
          </mxGeometry>
        </mxCell>
        <mxCell id="BljJxkDZNTCyLEzIoULD-30" value="" style="edgeStyle=orthogonalEdgeStyle;html=1;verticalAlign=bottom;endArrow=open;endSize=8;strokeColor=#ff0000;rounded=0;exitX=0.987;exitY=0.488;exitDx=0;exitDy=0;exitPerimeter=0;" parent="1" edge="1">
          <mxGeometry relative="1" as="geometry">
            <mxPoint x="1511.82" y="421.28999999999996" as="targetPoint" />
            <mxPoint x="1409.9999999999998" y="420.746" as="sourcePoint" />
          </mxGeometry>
        </mxCell>
        <mxCell id="BljJxkDZNTCyLEzIoULD-31" value="" style="edgeStyle=orthogonalEdgeStyle;html=1;verticalAlign=bottom;endArrow=open;endSize=8;strokeColor=#ff0000;rounded=0;exitX=0.987;exitY=0.488;exitDx=0;exitDy=0;exitPerimeter=0;" parent="1" edge="1">
          <mxGeometry relative="1" as="geometry">
            <mxPoint x="1511.82" y="502.03999999999996" as="targetPoint" />
            <mxPoint x="1409.9999999999998" y="501.496" as="sourcePoint" />
          </mxGeometry>
        </mxCell>
        <mxCell id="BljJxkDZNTCyLEzIoULD-32" value="" style="shape=line;html=1;strokeWidth=6;strokeColor=#ff0000;rotation=-90;" parent="1" vertex="1">
          <mxGeometry x="1382" y="370" width="270" height="10" as="geometry" />
        </mxCell>
        <mxCell id="BljJxkDZNTCyLEzIoULD-33" value="" style="edgeStyle=orthogonalEdgeStyle;html=1;verticalAlign=bottom;endArrow=open;endSize=8;strokeColor=#ff0000;rounded=0;exitX=0.502;exitY=0.6;exitDx=0;exitDy=0;exitPerimeter=0;entryX=0;entryY=0.5;entryDx=0;entryDy=0;" parent="1" source="BljJxkDZNTCyLEzIoULD-32" target="lzAnouYIb8f7EVIocrHt-121" edge="1">
          <mxGeometry relative="1" as="geometry">
            <mxPoint x="1630" y="375" as="targetPoint" />
            <mxPoint x="1522" y="375" as="sourcePoint" />
            <Array as="points">
              <mxPoint x="1581" y="375" />
            </Array>
          </mxGeometry>
        </mxCell>
        <mxCell id="BljJxkDZNTCyLEzIoULD-36" value="" style="shape=line;html=1;strokeWidth=6;strokeColor=#ff0000;rotation=0;" parent="1" vertex="1">
          <mxGeometry x="1080" y="140" width="180" height="10" as="geometry" />
        </mxCell>
        <mxCell id="BljJxkDZNTCyLEzIoULD-37" value="" style="edgeStyle=orthogonalEdgeStyle;html=1;verticalAlign=bottom;endArrow=open;endSize=8;strokeColor=#ff0000;rounded=0;exitX=0.931;exitY=0.628;exitDx=0;exitDy=0;exitPerimeter=0;" parent="1" edge="1">
          <mxGeometry relative="1" as="geometry">
            <mxPoint x="1100" y="260" as="targetPoint" />
            <mxPoint x="1100.0000000000005" y="149.99999999999997" as="sourcePoint" />
            <Array as="points">
              <mxPoint x="1100.42" y="193.72" />
              <mxPoint x="1100.42" y="193.72" />
              <mxPoint x="1100.42" y="253.72" />
            </Array>
          </mxGeometry>
        </mxCell>
        <mxCell id="BljJxkDZNTCyLEzIoULD-42" value="" style="edgeStyle=orthogonalEdgeStyle;html=1;verticalAlign=bottom;endArrow=open;endSize=8;strokeColor=#ff0000;rounded=0;exitX=0.931;exitY=0.628;exitDx=0;exitDy=0;exitPerimeter=0;" parent="1" edge="1">
          <mxGeometry relative="1" as="geometry">
            <mxPoint x="1140" y="340" as="targetPoint" />
            <mxPoint x="1140.0000000000005" y="149.99999999999997" as="sourcePoint" />
            <Array as="points">
              <mxPoint x="1140.42" y="193.72" />
              <mxPoint x="1140.42" y="193.72" />
              <mxPoint x="1140.42" y="253.72000000000003" />
            </Array>
          </mxGeometry>
        </mxCell>
        <mxCell id="BljJxkDZNTCyLEzIoULD-43" value="" style="edgeStyle=orthogonalEdgeStyle;html=1;verticalAlign=bottom;endArrow=open;endSize=8;strokeColor=#ff0000;rounded=0;exitX=0.931;exitY=0.628;exitDx=0;exitDy=0;exitPerimeter=0;" parent="1" edge="1">
          <mxGeometry relative="1" as="geometry">
            <mxPoint x="1180" y="420" as="targetPoint" />
            <mxPoint x="1180.0000000000005" y="149.99999999999997" as="sourcePoint" />
            <Array as="points">
              <mxPoint x="1180.42" y="193.72" />
              <mxPoint x="1180.42" y="193.72" />
              <mxPoint x="1180.42" y="253.72000000000003" />
            </Array>
          </mxGeometry>
        </mxCell>
        <mxCell id="BljJxkDZNTCyLEzIoULD-44" value="" style="edgeStyle=orthogonalEdgeStyle;html=1;verticalAlign=bottom;endArrow=open;endSize=8;strokeColor=#ff0000;rounded=0;exitX=0.931;exitY=0.628;exitDx=0;exitDy=0;exitPerimeter=0;" parent="1" edge="1">
          <mxGeometry relative="1" as="geometry">
            <mxPoint x="1220" y="500.4761904761905" as="targetPoint" />
            <mxPoint x="1220.0000000000005" y="149.99999999999997" as="sourcePoint" />
            <Array as="points">
              <mxPoint x="1220.42" y="193.72" />
              <mxPoint x="1220.42" y="193.72" />
              <mxPoint x="1220.42" y="253.72000000000003" />
            </Array>
          </mxGeometry>
        </mxCell>
        <mxCell id="BljJxkDZNTCyLEzIoULD-45" value="" style="ellipse;" parent="1" vertex="1">
          <mxGeometry x="700" y="160" width="30" height="30" as="geometry" />
        </mxCell>
        <mxCell id="BljJxkDZNTCyLEzIoULD-47" value="" style="edgeStyle=orthogonalEdgeStyle;html=1;verticalAlign=bottom;endArrow=open;endSize=8;strokeColor=#ff0000;rounded=0;exitX=1;exitY=0.5;exitDx=0;exitDy=0;entryX=-0.004;entryY=0.368;entryDx=0;entryDy=0;entryPerimeter=0;" parent="1" target="lzAnouYIb8f7EVIocrHt-83" edge="1">
          <mxGeometry relative="1" as="geometry">
            <mxPoint x="750" y="150" as="targetPoint" />
            <mxPoint x="730" y="174.89" as="sourcePoint" />
            <Array as="points">
              <mxPoint x="750" y="175" />
            </Array>
          </mxGeometry>
        </mxCell>
      </root>
    </mxGraphModel>
  </diagram>
</mxfile>
